<svg xmlns="http://www.w3.org/2000/svg" id="Layer_1" data-name="Layer 1" viewBox="0 0 200 160"><defs><style>      .cls-1 {        fill: #fff;        fill-rule: evenodd;        stroke-width: 0px;      }    </style></defs><path class="cls-1" d="M196.7,0c2.8,8.5,5.7,28.2,0,35.9.7,12.7-2.8,20.4-10.6,24.7,22,2.8-1.4,29.6-4.3,36.6-2.1,1.4-3.5,2.8-5.7,4.2-.7,1.4-.7,2.8-1.4,4.2-5.7,5.6-19.9,7.8-30.5,4.2,0,5.6,5,9.2,7.8,12.7,2.8,4.2,4.3,9.2,5,15.5.7,7.8,1.4,14.1.7,21.1-.5,0-.7.2-.7.7-5.7.7-7.1-4.9-10.6-7.8-3.5-2.8-7.8-4.2-11.4-6.3-6.4-4.9-8.5-14.1-12.8-20.4-3.5,9.9-6.4,20.4-16.3,23.3-5.7,1.4-13.5,0-19.2,4.2-12.1.7-36.2,2.8-26.3-14.8-3.5,0-3.5,4.2-7.8,4.9-2.1.7-5.7-1.4-9.9-2.1-4.3-.7-8.5,0-10.6-2.8-6.4,2.1-9.9-2.1-14.9-4.2-2.1-.7-3.5,0-5-.7-2.1-.7-12.1-8.5-12.1-10.6-1.4-9.2,17-15.5,23.4-19.7,23.4-4.9,54-7,81.6-4.9,2.1-4.2,1.4-9.9-.7-12.7-9.9.7-22,4.9-31.9,4.9s-8.5,0-9.9-2.8c14.9-2.1,29.1-4.2,42.6-6.3.7-1.4,0-4.9.7-6.3,2.8-1.4,7.8-4.2,9.9-.7,9.9-9.9,17-25.4,26.3-33.8-3.5,16.2-14.9,24.7-23.4,35.9,1.4,3.5,5,6.3,8.5,7.8,14.2-20.4,23.4-48.6,39-67.6,7.1-8.5,17.7-15.5,30.5-16.2Z"></path></svg>