<svg xmlns="http://www.w3.org/2000/svg" xmlns:xlink="http://www.w3.org/1999/xlink" id="Layer_1" data-name="Layer 1" viewBox="0 0 245.7 62.1"><defs><style>      .cls-1 {        fill-rule: evenodd;      }      .cls-1, .cls-2 {        fill: #fff;        stroke-width: 0px;      }    </style></defs><image width="393" height="138" transform="translate(-7559.9 -7683)"></image><path class="cls-1" d="M77.1,0c1.1,3.3,2.2,10.9,0,13.9.3,4.9-1.1,7.9-4.2,9.6,8.6,1.1-.6,11.5-1.7,14.2-.8.5-1.4,1.1-2.2,1.6-.3.5-.3,1.1-.6,1.6-2.2,2.2-7.8,3-12,1.6,0,2.2,1.9,3.6,3.1,4.9,1.1,1.6,1.7,3.6,1.9,6,.3,3,.6,5.5.3,8.2-.2,0-.3,0-.3.3-2.2.3-2.8-1.9-4.2-3-1.4-1.1-3.1-1.6-4.4-2.5-2.5-1.9-3.3-5.5-5-7.9-1.4,3.8-2.5,7.9-6.4,9-2.2.5-5.3,0-7.5,1.6-4.7.3-14.2,1.1-10.3-5.7-1.4,0-1.4,1.6-3.1,1.9-.8.3-2.2-.5-3.9-.8-1.7-.3-3.3,0-4.2-1.1-2.5.8-3.9-.8-5.8-1.6-.8-.3-1.4,0-1.9-.3-.8-.3-4.7-3.3-4.7-4.1-.6-3.6,6.7-6,9.2-7.7,9.2-1.9,21.1-2.7,32-1.9.8-1.6.6-3.8-.3-4.9-3.9.3-8.6,1.9-12.5,1.9s-3.3,0-3.9-1.1c5.8-.8,11.4-1.6,16.7-2.5.3-.5,0-1.9.3-2.5,1.1-.5,3.1-1.6,3.9-.3,3.9-3.8,6.7-9.8,10.3-13.1-1.4,6.3-5.8,9.6-9.2,13.9.6,1.4,1.9,2.5,3.3,3,5.6-7.9,9.2-18.9,15.3-26.2,2.8-3.3,7-6,12-6.3Z"></path><path class="cls-2" d="M98.5,53.4V7.1h20.2c15,0,25.3,9.3,25.3,23.2s-10.3,23.2-25.3,23.2h-20.2ZM107.1,46.1h11.2c10.3,0,17-6.3,17-15.9s-6.7-15.9-17-15.9h-11.2v31.7ZM202,53.4h-8.1v-30.7c0,0-15.3,25.4-15.3,25.4h-3.8l-15.2-25v30.3h-8.2V7.1h7.1l18.4,30.7,18.1-30.7h7.1v46.3ZM227,54c-3.6,0-7.2-.6-10.4-1.5s-5.9-2.4-7.9-4l1.5-3.3,1.5-3.3c1.9,1.5,4.2,2.8,6.9,3.7s5.5,1.4,8.4,1.4,6.2-.6,7.8-1.7,2.4-2.6,2.4-4.3c0-5-6.9-5.9-13.8-7.6s-13.8-4.4-13.8-13,1.5-7.2,4.6-9.7,7.7-4.1,14.1-4.1,5.6.4,8.3,1.1,5.1,1.7,7.1,3l-1.4,3.3-1.4,3.3c-2.1-1.2-4.3-2.1-6.4-2.7s-4.3-.9-6.3-.9c-3.6,0-6.1.7-7.7,1.8s-2.3,2.7-2.3,4.5c0,4.9,6.9,5.8,13.7,7.5s13.7,4.4,13.7,12.9-1.5,7.1-4.6,9.7-7.8,4.1-14.1,4.1Z"></path></svg>