<svg xmlns="http://www.w3.org/2000/svg" id="Layer_1" data-name="Layer 1" viewBox="0 0 166 166"><defs><style>      .cls-1, .cls-2 {        fill: #000;        stroke-width: 0px;      }      .cls-2 {        fill-rule: evenodd;      }    </style></defs><path class="cls-1" d="M83,160.9c-43.3,0-78.4-35-78.4-77.9S39.7,5.1,83,5.1s78.4,35,78.4,77.9-35.2,77.9-78.4,77.9ZM83,9.1C41.9,9.1,8.6,42.2,8.6,83s33.4,73.9,74.4,73.9,74.4-33.2,74.4-73.9S124.1,9.1,83,9.1Z"></path><path class="cls-2" d="M129.2,35.7c1.5,4.5,3.1,15.2,0,19.3.4,6.8-1.5,11-5.7,13.3,11.8,1.5-.8,15.9-2.3,19.7-1.1.8-1.9,1.5-3.1,2.3-.4.8-.4,1.5-.8,2.3-3.1,3-10.7,4.2-16.4,2.3,0,3,2.7,4.9,4.2,6.8,1.5,2.3,2.3,4.9,2.7,8.3.4,4.2.8,7.6.4,11.4-.3,0-.4.1-.4.4-3.1.4-3.8-2.7-5.7-4.2-1.9-1.5-4.2-2.3-6.1-3.4-3.4-2.7-4.6-7.6-6.9-11-1.9,5.3-3.4,11-8.8,12.5-3.1.8-7.3,0-10.3,2.3-6.5.4-19.5,1.5-14.1-8-1.9,0-1.9,2.3-4.2,2.7-1.1.4-3.1-.8-5.3-1.1-2.3-.4-4.6,0-5.7-1.5-3.4,1.1-5.3-1.1-8-2.3-1.1-.4-1.9,0-2.7-.4-1.1-.4-6.5-4.5-6.5-5.7-.8-4.9,9.2-8.3,12.6-10.6,12.6-2.7,29-3.8,43.9-2.7,1.1-2.3.8-5.3-.4-6.8-5.3.4-11.8,2.7-17.2,2.7s-4.6,0-5.3-1.5c8-1.1,15.6-2.3,22.9-3.4.4-.8,0-2.7.4-3.4,1.5-.8,4.2-2.3,5.3-.4,5.3-5.3,9.2-13.6,14.1-18.2-1.9,8.7-8,13.3-12.6,19.3.8,1.9,2.7,3.4,4.6,4.2,7.6-11,12.6-26.1,21-36.4,3.8-4.5,9.5-8.3,16.4-8.7Z"></path></svg>