<svg xmlns="http://www.w3.org/2000/svg" width="200" height="160" viewBox="0 0 200 160" fill="none"><path fill-rule="evenodd" clip-rule="evenodd" d="M196.721 0C199.561 8.45496 202.4 28.1832 196.721 35.9336C197.431 48.616 193.881 56.3664 186.073 60.5939C208.08 63.4122 184.653 90.1862 181.813 97.232C179.683 98.6412 178.264 100.05 176.134 101.459C175.424 102.869 175.424 104.278 174.714 105.687C169.035 111.324 154.837 113.437 144.188 109.914C144.188 115.551 149.158 119.074 151.997 122.597C154.837 126.824 156.257 131.756 156.966 138.098C157.676 145.848 158.386 152.189 157.676 159.235C157.203 159.235 156.966 159.47 156.966 159.94C151.287 160.644 149.867 155.008 146.318 152.189C142.768 149.371 138.509 147.962 134.959 145.848C128.57 140.916 126.441 131.756 122.181 125.415C118.632 135.279 115.792 145.848 105.853 148.666C100.174 150.075 92.3652 148.666 86.6859 152.894C74.6175 153.598 50.4808 155.712 60.4194 138.098C56.8699 138.098 56.8699 142.325 52.6105 143.03C50.4808 143.734 46.9313 141.621 42.6718 140.916C38.4124 140.211 34.153 140.916 32.0233 138.098C25.6341 140.211 22.0846 135.984 17.1153 133.87C14.9856 133.166 13.5658 133.87 12.146 133.166C10.0162 132.461 0.0775829 124.711 0.0775829 122.597C-1.34223 113.437 17.1153 107.096 23.5044 102.869C46.9313 97.9366 77.4572 95.8228 105.143 97.9366C107.273 93.7091 106.563 88.0725 104.434 85.2542C94.4949 85.9587 82.4265 90.1862 72.4878 90.1862C69.6482 90.1862 63.969 90.1862 62.5492 87.3679C77.4572 85.2541 91.6552 83.1404 105.143 81.0267C105.853 79.6175 105.143 76.0946 105.853 74.6855C108.693 73.2763 113.662 70.458 115.792 73.9809C125.731 64.1168 132.83 48.616 142.058 40.161C138.509 56.3664 127.15 64.8213 118.632 76.0946C120.051 79.6175 123.601 82.4358 127.15 83.845C141.349 63.4122 150.577 35.229 166.195 16.2053C173.294 7.75038 183.943 0.70458 196.721 0Z" fill="black"></path></svg>