<svg xmlns="http://www.w3.org/2000/svg" xmlns:xlink="http://www.w3.org/1999/xlink" id="Layer_1" data-name="Layer 1" viewBox="0 0 156.9 155.9"><defs><style>      .cls-1 {        fill: #fff;        fill-rule: evenodd;      }      .cls-1, .cls-2 {        stroke-width: 0px;      }      .cls-2 {        fill: url(#linear-gradient);      }    </style><linearGradient id="linear-gradient" x1="3.1" y1="77.9" x2="153.8" y2="77.9" gradientUnits="userSpaceOnUse"><stop offset="0" stop-color="#6757ff"></stop><stop offset="1" stop-color="#eb31ff"></stop></linearGradient></defs><path class="cls-2" d="M78.4,152.8C36.9,152.8,3.1,119.2,3.1,77.9S36.9,3,78.4,3s75.4,33.6,75.4,74.9-33.8,74.9-75.4,74.9Z"></path><path class="cls-1" d="M122.8,32.5c1.5,4.4,2.9,14.6,0,18.6.4,6.6-1.5,10.6-5.5,12.7,11.4,1.5-.7,15.3-2.2,18.9-1.1.7-1.8,1.5-2.9,2.2-.4.7-.4,1.5-.7,2.2-2.9,2.9-10.3,4-15.8,2.2,0,2.9,2.6,4.7,4,6.6,1.5,2.2,2.2,4.7,2.6,8,.4,4,.7,7.3.4,10.9-.2,0-.4.1-.4.4-2.9.4-3.7-2.5-5.5-4-1.8-1.5-4-2.2-5.9-3.3-3.3-2.5-4.4-7.3-6.6-10.6-1.8,5.1-3.3,10.6-8.4,12-2.9.7-7,0-9.9,2.2-6.2.4-18.7,1.5-13.6-7.6-1.8,0-1.8,2.2-4,2.5-1.1.4-2.9-.7-5.1-1.1-2.2-.4-4.4,0-5.5-1.5-3.3,1.1-5.1-1.1-7.7-2.2-1.1-.4-1.8,0-2.6-.4-1.1-.4-6.2-4.4-6.2-5.5-.7-4.7,8.8-8,12.1-10.2,12.1-2.5,27.9-3.6,42.2-2.5,1.1-2.2.7-5.1-.4-6.6-5.1.4-11.4,2.5-16.5,2.5s-4.4,0-5.1-1.5c7.7-1.1,15-2.2,22-3.3.4-.7,0-2.5.4-3.3,1.5-.7,4-2.2,5.1-.4,5.1-5.1,8.8-13.1,13.6-17.5-1.8,8.4-7.7,12.7-12.1,18.6.7,1.8,2.6,3.3,4.4,4,7.3-10.6,12.1-25.1,20.2-35,3.7-4.4,9.2-8,15.8-8.4Z"></path></svg>